<svg width="616" height="79" viewBox="0 0 616 79" fill="none" xmlns="http://www.w3.org/2000/svg">
<path d="M65.1925 27.3014L50.0703 25.9784L72.7411 57.5646L68.5571 57.1985L45.8862 25.6123L30.764 24.2893L28.5949 21.2672L63.0234 24.2793L65.1925 27.3014Z" fill="black" fill-opacity="0.85"/>
<path d="M83.6235 47.8326C82.4392 46.3214 81.9685 44.927 82.2111 43.6496C82.4291 42.3407 83.2593 41.218 84.7017 40.2813C86.1836 39.3384 88.2085 38.6633 90.7764 38.2561C92.2776 38.018 93.9245 37.8807 95.717 37.8443C97.4848 37.7763 99.1364 37.8153 100.672 37.9612L99.0437 35.8831C97.4154 33.8051 95.3498 32.2743 92.8468 31.2907C90.3439 30.3071 87.7294 30.0315 85.0035 30.4637C83.3837 30.7206 81.9613 31.2293 80.7363 31.99C79.4866 32.7191 78.3627 33.6938 77.3646 34.914L74.0475 32.8914C75.1988 31.4699 76.5327 30.338 78.0491 29.4958C79.5408 28.6221 81.2941 28.0255 83.3089 27.706C87.1015 27.1046 90.7825 27.4943 94.3517 28.8751C97.921 30.256 100.902 32.4734 103.295 35.5275L112.214 46.9094C112.88 47.7595 113.72 48.1219 114.732 47.9968L116.73 50.5471C115.935 50.7794 115.347 50.908 114.967 50.9329C113.955 51.058 113.007 50.9252 112.123 50.5343C111.24 50.1435 110.568 49.6836 110.109 49.1546L108.644 47.3693C108.371 49.0054 107.437 50.3925 105.842 51.5304C104.222 52.6369 102.266 53.3718 99.9743 53.7352C97.9595 54.0547 95.9029 54.0091 93.8046 53.5985C91.6815 53.1565 89.7216 52.4407 87.9248 51.4513C86.1428 50.4242 84.709 49.218 83.6235 47.8326ZM105.785 46.4421C106.028 45.4479 105.865 44.5888 105.298 43.8646L102.485 40.2753C99.0933 39.8575 95.9158 39.8835 92.9528 40.3534C90.0689 40.8107 88.0957 41.6368 87.0334 42.8318C85.9711 44.0268 86.0567 45.4114 87.2903 46.9857C88.3512 48.3396 89.9652 49.4641 92.1325 50.3593C94.3392 51.2483 96.6277 51.5049 98.9981 51.129C100.934 50.822 102.497 50.2378 103.688 49.3765C104.918 48.5089 105.617 47.5308 105.785 46.4421Z" fill="black" fill-opacity="0.85"/>
<path d="M119.095 63.7756C119.656 63.8119 120.197 63.8283 120.717 63.8248C121.238 63.8613 121.617 63.8388 121.855 63.7572C122.333 63.7141 122.764 63.4313 123.147 62.9089C123.571 62.4262 124.061 61.5033 124.616 60.14C125.213 58.8165 126.007 56.8118 126.999 54.1261L112.352 22.9736L116.672 22.9449L129.021 49.914L138.692 22.7983L142.772 22.7712L127.897 63.1772C127.495 64.3395 126.788 65.3439 125.776 66.1904C124.763 67.0368 123.398 67.4858 121.679 67.5372C121.32 67.5796 120.94 67.5821 120.539 67.5448C120.139 67.5474 119.698 67.5104 119.215 67.4336L119.095 63.7756Z" fill="black" fill-opacity="0.85"/>
<path d="M159.27 12.0327L163.341 12.3043L151.843 47.1779C151.355 48.6594 151.295 49.6454 151.663 50.1359C152.072 50.6291 152.695 50.9036 153.533 50.9595C154.252 51.0074 154.995 50.9794 155.764 50.8754C156.572 50.774 157.241 50.6633 157.77 50.5433L157.455 53.7253C156.596 53.9786 155.577 54.163 154.397 54.2784C153.257 54.3964 152.288 54.4288 151.489 54.3755C149.653 54.2531 148.346 53.6417 147.566 52.5414C146.827 51.4438 146.752 50.0023 147.34 48.2168L159.27 12.0327Z" fill="black" fill-opacity="0.85"/>
<path d="M174.524 55.8353C171.543 55.5056 169.234 54.5617 167.597 53.0035C166.001 51.4498 165.132 49.5297 164.99 47.2434C164.867 44.9219 165.495 42.4975 166.876 39.9701C168.276 37.4075 170.217 35.1281 172.699 33.1319C175.24 31.1049 178.018 29.5695 181.033 28.5256C184.108 27.4511 187.116 27.0764 190.058 27.4017C193.04 27.7313 195.319 28.6906 196.897 30.2794C198.533 31.8376 199.412 33.7774 199.535 36.0989C199.717 38.3896 199.108 40.8162 197.708 43.3788C196.328 45.9062 194.387 48.1856 191.886 50.2169C189.404 52.2132 186.635 53.731 183.58 54.7705C180.565 55.8144 177.546 56.1693 174.524 55.8353ZM170.962 40.4776C169.85 42.5136 169.331 44.429 169.404 46.2239C169.536 47.988 170.189 49.456 171.362 50.6279C172.553 51.7647 174.183 52.4474 176.25 52.676C178.318 52.9045 180.475 52.6219 182.721 51.828C184.968 51.0341 187.068 49.8518 189.022 48.2812C190.977 46.7105 192.51 44.9072 193.622 42.8712C194.734 40.8352 195.234 38.9176 195.121 37.1183C195.008 35.3191 194.365 33.8335 193.192 32.6616C192.019 31.4897 190.399 30.7895 188.332 30.561C186.304 30.3368 184.158 30.6392 181.892 31.4682C179.645 32.2621 177.545 33.4443 175.591 35.015C173.637 36.5857 172.094 38.4066 170.962 40.4776Z" fill="black" fill-opacity="0.85"/>
<path d="M226.668 36.1236C223.927 35.8472 221.141 36.1867 218.31 37.142C215.519 38.1024 213.035 39.5955 210.858 41.6214L200.496 58.0692L196.449 57.5531L213.112 31.1047L216.921 31.5903L212.923 37.9359C215.167 36.2112 217.525 34.8847 219.996 33.9567C222.506 33.0336 224.796 32.6309 226.865 32.7485C227.283 32.7652 227.631 32.7913 227.909 32.8267C228.187 32.8622 228.434 32.912 228.651 32.9762L226.668 36.1236Z" fill="black" fill-opacity="0.85"/>
<path d="M276.44 67.727L292.501 36.9905L264.69 59.2455L262.065 58.9679L259.147 33.4633L243.086 64.1998L238.909 63.7581L258.638 26.0022L262.935 26.4565L265.957 54.0485L296.11 29.9648L300.346 30.4128L280.616 68.1687L276.44 67.727Z" fill="black" fill-opacity="0.85"/>
<path d="M314.818 72.1489C311.783 71.9747 309.289 71.1081 307.337 69.549C305.395 67.9515 304.079 65.94 303.387 63.5146C302.705 61.0508 302.769 58.395 303.576 55.5473C304.384 52.6996 305.774 50.159 307.746 47.9257C309.73 45.6539 312.096 43.8929 314.845 42.6427C317.605 41.3541 320.522 40.798 323.597 40.9744C326.512 41.1417 328.883 41.9426 330.708 43.377C332.584 44.7753 333.77 46.6033 334.267 48.861L329.969 49.8463C329.527 48.2566 328.628 46.9926 327.27 46.0543C325.964 45.0798 324.352 44.5376 322.435 44.4276C320.319 44.3061 318.255 44.7156 316.243 45.6561C314.271 46.5989 312.504 47.9641 310.942 49.7517C309.431 51.5031 308.353 53.514 307.709 55.7845C307.065 58.055 307.001 60.1436 307.515 62.0503C308.03 63.9571 308.987 65.5177 310.388 66.7323C311.8 67.9083 313.544 68.5559 315.62 68.6751C316.978 68.753 318.361 68.5978 319.77 68.2093C321.179 67.8208 322.452 67.2681 323.589 66.5512C324.736 65.7958 325.601 64.9654 326.182 64.0602L329.868 65.445C328.905 66.8367 327.621 68.0732 326.016 69.1543C324.422 70.197 322.653 70.995 320.711 71.5484C318.779 72.0633 316.815 72.2634 314.818 72.1489Z" fill="black" fill-opacity="0.85"/>
<path d="M340.981 73.1664L343.653 30.6503L361.292 30.8746C363.132 30.898 364.788 31.2986 366.26 32.0765C367.772 32.8548 369.047 33.9098 370.084 35.2414C371.163 36.5337 371.953 37.982 372.453 39.5865C372.995 41.1516 373.214 42.7525 373.112 44.3893C372.966 46.7047 372.308 48.8937 371.138 50.9564C369.97 52.9792 368.426 54.6176 366.506 55.8717C364.586 57.1258 362.406 57.7373 359.966 57.7063L346.167 57.5308L345.181 73.2198L340.981 73.1664ZM346.4 53.8181L360.019 53.9913C361.699 54.0127 363.188 53.5721 364.485 52.6697C365.783 51.7673 366.818 50.5819 367.591 49.1134C368.364 47.645 368.804 46.0525 368.912 44.3358C369.022 42.5793 368.723 40.9774 368.013 39.53C367.306 38.0428 366.32 36.8516 365.055 35.9566C363.831 35.062 362.438 34.6048 360.878 34.585L347.62 34.4164L346.4 53.8181Z" fill="black" fill-opacity="0.85"/>
<path d="M414.296 72.7358L410.219 72.8891L407.03 55.7229C405.736 48.762 402.691 45.3718 397.895 45.5521C396.336 45.6107 394.89 46.0611 393.557 46.9033C392.217 47.7061 391.092 48.7979 390.181 50.1786C389.303 51.5184 388.781 53.0429 388.616 54.752L392.112 73.57L388.035 73.7233L380.034 30.6602L384.111 30.5069L387.695 49.7968C388.51 47.4693 389.893 45.5956 391.843 44.1758C393.826 42.7152 396.076 41.9376 398.594 41.8429C400.993 41.7527 403.017 42.2508 404.668 43.3372C406.312 44.3842 407.639 45.8986 408.652 47.8802C409.697 49.821 410.464 52.1088 410.953 54.7438L414.296 72.7358Z" fill="black" fill-opacity="0.85"/>
<path d="M444.032 69.8028C441.043 70.057 438.086 69.6019 435.161 68.4374C432.236 67.2729 429.616 65.6051 427.3 63.434C424.984 61.2629 423.253 58.8129 422.106 56.084C420.975 53.392 420.595 50.8653 420.965 48.504C421.375 46.1393 422.476 44.1932 424.27 42.6656C426.048 41.1012 428.432 40.192 431.421 39.9378C434.49 39.6768 437.467 40.1302 440.352 41.2981C443.237 42.466 445.79 44.1204 448.01 46.2614C450.255 48.3622 451.936 50.7401 453.051 53.3953C453.299 53.9853 453.489 54.4848 453.619 54.8939L426.955 57.1612C428.022 59.2094 429.435 60.999 431.193 62.53C432.935 64.0242 434.845 65.1796 436.922 65.996C438.983 66.7756 441.01 67.0806 443.003 66.9112C445.036 66.7383 446.747 66.0963 448.138 64.9849C449.529 63.8736 450.277 62.5114 450.384 60.8982L454.283 61.4833C454.234 62.9388 453.764 64.2773 452.874 65.4989C452.008 66.6801 450.83 67.6588 449.34 68.4348C447.834 69.174 446.065 69.63 444.032 69.8028ZM425.697 54.461L448.714 52.5037C447.687 50.4522 446.302 48.6793 444.559 47.1851C442.802 45.654 440.9 44.5172 438.854 43.7745C436.792 42.9949 434.745 42.6915 432.713 42.8644C430.68 43.0372 429.021 43.6558 427.734 44.72C426.432 45.7474 425.584 47.1182 425.189 48.8322C424.819 50.5061 424.989 52.3823 425.697 54.461Z" fill="black" fill-opacity="0.85"/>
<path d="M471.941 39.4287C469.282 39.8243 467.29 40.765 465.964 42.2507C464.678 43.7316 464.265 45.6038 464.725 47.8672L474.707 64.5488L470.657 65.0393L454.606 38.2149L458.418 37.7532L462.269 44.189C462.211 42.1714 462.707 40.4732 463.756 39.0946C464.845 37.7112 466.341 36.8306 468.244 36.4529C468.621 36.3705 468.948 36.3125 469.226 36.2788C469.504 36.2451 469.772 36.231 470.031 36.2365L471.941 39.4287Z" fill="black" fill-opacity="0.85"/>
<path d="M504.524 60.5907C501.992 60.9732 499.388 60.9922 496.71 60.6478C494.048 60.2654 491.403 59.5236 488.776 58.4225L488.715 55.8638C491.436 56.915 493.894 57.6136 496.089 57.9596C498.3 58.2676 500.394 58.2722 502.371 57.9733C504.744 57.6148 506.395 56.9373 507.324 55.941C508.268 54.9066 508.19 53.6523 507.089 52.1779C506.347 51.1843 505.409 50.4879 504.274 50.0886C503.156 49.6513 501.785 49.377 500.161 49.2657C498.577 49.1483 496.68 49.0248 494.47 48.895C491.976 48.7369 489.805 48.512 487.959 48.2203C486.128 47.8906 484.538 47.3819 483.188 46.6941C481.854 45.9684 480.697 44.9484 479.715 43.6343C478.519 42.0318 478.008 40.6109 478.183 39.3718C478.398 38.1266 479.172 37.1002 480.505 36.2923C481.854 35.4465 483.616 34.8592 485.792 34.5305C488.165 34.1719 490.488 34.1597 492.762 34.4938C495.036 34.8278 497.154 35.4531 499.114 36.3695L498.808 38.8769C496.974 38.0126 495.087 37.4596 493.146 37.2179C491.221 36.9381 489.348 36.9357 487.529 37.2106C486.263 37.4018 485.165 37.7284 484.233 38.1901C483.277 38.6198 482.663 39.212 482.39 39.9666C482.133 40.6831 482.411 41.5863 483.225 42.676C484.23 44.0222 485.537 44.859 487.146 45.1866C488.755 45.5141 491.021 45.7781 493.943 45.9785C496.66 46.1388 499.08 46.3438 501.203 46.5937C503.326 46.8435 505.185 47.3295 506.781 48.0514C508.352 48.7413 509.7 49.8395 510.825 51.3459C512.572 53.6856 512.848 55.6769 511.654 57.3197C510.46 58.9625 508.083 60.0528 504.524 60.5907Z" fill="black" fill-opacity="0.85"/>
<path d="M541.246 53.2579C538.298 53.8112 535.161 53.7628 531.835 53.1127C528.548 52.4552 525.427 51.3536 522.471 49.8078C519.487 48.2326 517.016 46.3891 515.058 44.2771C513.073 42.1359 511.9 40.0489 511.538 38.0162C511.188 35.9468 511.651 34.1556 512.925 32.6424C514.211 31.0926 516.308 30.0447 519.218 29.4989C522.166 28.9456 525.297 29.0124 528.611 29.6992C531.937 30.3493 535.091 31.4619 538.075 33.037C541.07 34.5755 543.561 36.4154 545.546 38.5566C547.504 40.6685 548.678 42.7555 549.067 44.8175C549.428 46.8502 548.952 48.6268 547.639 50.1473C546.365 51.6604 544.234 52.6973 541.246 53.2579ZM519.168 43.5577C520.745 45.2589 522.678 46.7213 524.967 47.9449C527.267 49.1317 529.643 49.9771 532.095 50.4812C534.52 50.956 536.754 51.0016 538.799 50.618C540.843 50.2345 542.33 49.4734 543.259 48.3349C544.188 47.1964 544.511 45.8273 544.227 44.2276C543.944 42.6278 543.014 40.9773 541.436 39.2761C539.859 37.5748 537.907 36.1161 535.579 34.9C533.252 33.6838 530.862 32.8237 528.41 32.3196C525.958 31.8155 523.71 31.7552 521.665 32.1388C519.66 32.515 518.207 33.287 517.305 34.4548C516.376 35.5933 516.053 36.9624 516.336 38.5622C516.62 40.1619 517.564 41.8271 519.168 43.5577Z" fill="black" fill-opacity="0.85"/>
<path d="M592.957 40.5766L588.977 41.4765L575.966 29.8331C573.224 27.379 570.681 25.7153 568.336 24.842C566.001 23.9332 563.722 23.7303 561.498 24.2332C559.937 24.5861 558.694 25.2013 557.769 26.0789C556.814 26.9298 556.258 27.9411 556.101 29.1127C555.953 30.2488 556.266 31.4477 557.041 32.7094L571.303 45.4732L567.324 46.3731L544.03 25.5269L547.658 24.7064L552.934 29.4278C552.444 27.6339 552.848 26.0054 554.146 24.5424C555.444 23.0795 557.458 22.0392 560.189 21.4216C562.452 20.9099 564.664 20.8775 566.825 21.3244C568.956 21.7446 571.055 22.5732 573.122 23.8101C575.197 25.0115 577.263 26.5324 579.32 28.373L592.957 40.5766Z" fill="black" fill-opacity="0.85"/>
</svg>
